<mxfile host="app.diagrams.net" modified="2023-09-20T07:35:36.324Z" agent="Mozilla/5.0 (Macintosh; Intel Mac OS X 10_15_7) AppleWebKit/537.36 (KHTML, like Gecko) Chrome/117.0.0.0 Safari/537.36" version="21.6.9" etag="4fM1e0RektlejRI_ATsK" type="github">
  <diagram name="Страница — 1" id="nxxZf7Ij1BDolB6Qh3j_">
    <mxGraphModel>
      <root>
        <mxCell id="0" />
        <mxCell id="1" parent="0" />
      </root>
    </mxGraphModel>
  </diagram>
</mxfile>
